<svg width="42" height="42" viewBox="0 0 42 42" fill="none" xmlns="http://www.w3.org/2000/svg">
<path d="M21.0001 13.3199C22.2801 8.2671 27.1145 5.6871 37.6401 5.6399C37.8084 5.63927 37.9751 5.67194 38.1307 5.73604C38.2863 5.80014 38.4276 5.8944 38.5466 6.01339C38.6656 6.13238 38.7598 6.27373 38.8239 6.42932C38.888 6.5849 38.9207 6.75163 38.9201 6.9199V29.9599C38.9201 30.2994 38.7852 30.625 38.5452 30.865C38.3051 31.105 37.9796 31.2399 37.6401 31.2399C27.4001 31.2399 23.4441 33.3047 21.0001 36.3599M21.0001 13.3199C19.7201 8.2671 14.8857 5.6871 4.36009 5.6399C4.19182 5.63927 4.02509 5.67194 3.8695 5.73604C3.71392 5.80014 3.57256 5.8944 3.45358 6.01339C3.33459 6.13238 3.24033 6.27373 3.17623 6.42932C3.11213 6.5849 3.07945 6.75163 3.08009 6.9199V29.8055C3.08009 30.5959 3.56969 31.2399 4.36009 31.2399C14.6001 31.2399 18.5705 33.3199 21.0001 36.3599M21.0001 13.3199V36.3599" stroke="#FEBF5F" stroke-width="4" stroke-linecap="round" stroke-linejoin="round"/>
</svg>
