<svg width="18" height="18" viewBox="0 0 18 18" fill="none" xmlns="http://www.w3.org/2000/svg">
<path d="M16.6287 1.37279C16.5137 1.25779 16.3679 1.17849 16.2088 1.14443C16.0498 1.11038 15.8843 1.12302 15.7322 1.18084L1.66867 6.50385H1.66586C1.50371 6.56622 1.36476 6.67712 1.26799 6.82141C1.17123 6.9657 1.12136 7.13635 1.12521 7.31004C1.12905 7.48373 1.18642 7.652 1.28948 7.79187C1.39254 7.93173 1.53626 8.03638 1.70102 8.0915L1.71543 8.09607L6.54239 10.1573C6.63653 10.1859 6.73653 10.1893 6.8324 10.1671C6.92826 10.145 7.01664 10.0981 7.08871 10.0311L14.8357 2.81244C14.8588 2.78936 14.8862 2.77105 14.9164 2.75855C14.9466 2.74606 14.9789 2.73963 15.0115 2.73963C15.0442 2.73963 15.0765 2.74606 15.1067 2.75855C15.1368 2.77105 15.1642 2.78936 15.1873 2.81244C15.2104 2.83553 15.2287 2.86293 15.2412 2.89309C15.2537 2.92325 15.2601 2.95558 15.2601 2.98822C15.2601 3.02087 15.2537 3.0532 15.2412 3.08336C15.2287 3.11352 15.2104 3.14092 15.1873 3.164L7.96832 10.9075C7.90134 10.9796 7.85444 11.068 7.83229 11.1638C7.81014 11.2597 7.81353 11.3597 7.84211 11.4538L9.90403 16.2836C9.90614 16.2906 9.90824 16.297 9.91071 16.3037C10.0232 16.6296 10.308 16.8595 10.6522 16.8749H10.6873C10.8611 16.8759 11.0311 16.8246 11.1753 16.7277C11.3195 16.6308 11.4312 16.4927 11.4959 16.3314L16.8182 2.27174C16.8769 2.11961 16.8902 1.95375 16.8565 1.79422C16.8229 1.63468 16.7438 1.48831 16.6287 1.37279Z" fill="#FFDB70"/>
</svg>
