<svg width="85" height="85" viewBox="0 0 85 85" fill="none" xmlns="http://www.w3.org/2000/svg">
<path d="M65.9041 72.018H19.1201C20.7734 69.5419 23.3888 67.8734 26.3307 67.4178C30.9972 66.697 37.6688 65.3013 38.2443 63.1635C38.4066 62.5592 38.3709 61.9421 38.2018 61.3369H46.8233C46.6542 61.9421 46.6168 62.5592 46.78 63.1635C47.3554 65.3013 54.0271 66.697 58.6944 67.4178C61.6363 67.8734 64.2509 69.5419 65.9041 72.018Z" fill="black" stroke="#3E66F3" stroke-width="0.8"/>
<path d="M19.791 15.4472V21.6352H65.2341V15.4472C65.2341 14.0447 64.0866 12.8972 62.6841 12.8972H22.341C20.9385 12.8972 19.791 14.0447 19.791 15.4472ZM57.3699 17.2662C57.3699 16.6818 57.848 16.2037 58.4324 16.2037H60.8124C61.3967 16.2037 61.8749 16.6818 61.8749 17.2662C61.8749 17.8506 61.3967 18.3287 60.8124 18.3287H58.4324C57.848 18.3287 57.3699 17.8506 57.3699 17.2662ZM50.2724 17.2662C50.2724 16.6818 50.7505 16.2037 51.3349 16.2037H53.7149C54.2992 16.2037 54.7774 16.6818 54.7774 17.2662C54.7774 17.8506 54.2992 18.3287 53.7149 18.3287H51.3349C50.7505 18.3287 50.2724 17.8506 50.2724 17.2662ZM43.1749 17.2662C43.1749 16.6818 43.653 16.2037 44.2374 16.2037H46.6174C47.2017 16.2037 47.6799 16.6818 47.6799 17.2662C47.6799 17.8506 47.2017 18.3287 46.6174 18.3287H44.2374C43.653 18.3287 43.1749 17.8506 43.1749 17.2662Z" fill="black" stroke="#3E66F3" stroke-width="0.8"/>
<path d="M69.5227 17.9035H67.3589V21.6351C67.3589 21.639 67.3589 21.6429 67.3589 21.6468C67.3551 22.3475 67.3551 23.0478 67.3589 23.7486C67.3589 23.7525 67.3589 23.7563 67.3589 23.7602V50.1595C67.3589 52.7415 65.2658 54.8345 62.6839 54.8345H22.3409C19.7589 54.8345 17.6659 52.7415 17.6659 50.1595V23.7602C17.6659 23.7563 17.6659 23.7524 17.6659 23.7486C17.6697 23.0478 17.6697 22.3476 17.6659 21.6469C17.6659 21.643 17.6659 21.6391 17.6659 21.6353V17.9035H15.5021C14.0939 17.9035 12.9521 19.0452 12.9521 20.4535V56.6615C12.9521 58.0698 14.0939 59.2115 15.5021 59.2115H69.5228C70.9311 59.2115 72.0728 58.0698 72.0728 56.6615V20.4535C72.0727 19.0453 70.931 17.9035 69.5227 17.9035Z" fill="black" stroke="#3E66F3" stroke-width="0.8"/>
<path d="M52.658 39.6621H51.3145V41.847H52.658C52.966 41.847 53.2247 41.7426 53.4348 41.5339C53.6448 41.3251 53.7498 41.0631 53.7498 40.7476C53.7498 40.4508 53.6448 40.1957 53.4348 39.9822C53.2247 39.7689 52.9659 39.6621 52.658 39.6621Z" fill="black" stroke="#3E66F3" stroke-width="0.8"/>
<path d="M19.791 23.76V50.1593C19.791 51.5652 20.9351 52.7093 22.341 52.7093H62.6846C64.0905 52.7093 65.2346 51.5652 65.2346 50.1593C65.2346 50.1593 65.2346 23.7609 65.2346 23.76H19.791ZM23.5947 28.7382H25.9747C26.5591 28.7382 27.0372 29.2163 27.0372 29.8007C27.0372 30.385 26.5591 30.8632 25.9747 30.8632H23.5947C23.0103 30.8632 22.5322 30.385 22.5322 29.8007C22.5322 29.2163 23.0103 28.7382 23.5947 28.7382ZM27.9321 45.5079C28.347 45.9228 28.347 46.5955 27.9321 47.0105C27.5172 47.4254 26.8445 47.4254 26.4295 47.0105L22.8433 43.4243C22.4284 43.0094 22.4284 42.3366 22.8433 41.9217L26.4295 38.3355C26.8444 37.9205 27.5172 37.9205 27.9321 38.3355C28.347 38.7504 28.347 39.4232 27.9321 39.8381L25.0972 42.6731L27.9321 45.5079ZM38.5397 44.2476C38.2983 44.809 37.9691 45.2983 37.5517 45.7157C37.1342 46.1332 36.6447 46.4603 36.0835 46.6969C35.5221 46.9334 34.9214 47.0517 34.2813 47.0517C33.6412 47.0517 33.0379 46.9334 32.4722 46.6969C31.9061 46.4603 31.4145 46.1356 30.9971 45.7227C30.5796 45.31 30.2478 44.8251 30.002 44.2684C29.7561 43.7117 29.6333 43.1134 29.6333 42.4732C29.6333 41.8518 29.7492 41.2603 29.9812 40.6989C30.2129 40.1377 30.5354 39.6437 30.9484 39.2169C31.3611 38.7902 31.846 38.4514 32.4026 38.2009C32.9593 37.9505 33.5623 37.8252 34.2118 37.8252C34.8798 37.8252 35.4991 37.9482 36.0696 38.194C36.6402 38.4399 37.1365 38.7716 37.5587 39.189C37.9808 39.6065 38.3101 40.0959 38.5467 40.6572C38.7832 41.2186 38.9016 41.8146 38.9016 42.4455C38.9015 43.0856 38.7809 43.6864 38.5397 44.2476ZM48.5037 44.2476C48.2623 44.809 47.9331 45.2983 47.5156 45.7157C47.0981 46.1332 46.6087 46.4603 46.0474 46.6969C45.486 46.9334 44.8855 47.0517 44.2453 47.0517C43.6051 47.0517 43.0019 46.9334 42.4361 46.6969C41.8701 46.4603 41.3785 46.1356 40.9609 45.7227C40.5434 45.31 40.2117 44.8251 39.9659 44.2684C39.7199 43.7117 39.5971 43.1134 39.5971 42.4732C39.5971 41.8518 39.7131 41.2603 39.945 40.6989C40.1768 40.1377 40.4993 39.6437 40.9122 39.2169C41.325 38.7902 41.8098 38.4514 42.3665 38.2009C42.9232 37.9505 43.5262 37.8252 44.1756 37.8252C44.8437 37.8252 45.463 37.9482 46.0335 38.194C46.6041 38.4399 47.1003 38.7716 47.5225 39.189C47.9446 39.6065 48.274 40.0959 48.5106 40.6572C48.7472 41.2186 48.8655 41.8146 48.8655 42.4455C48.8655 43.0856 48.7448 43.6864 48.5037 44.2476ZM55.1756 41.8261C55.0313 42.1556 54.8335 42.4454 54.5822 42.6959C54.3308 42.9464 54.0375 43.1437 53.7024 43.2873C53.3673 43.4313 53.0136 43.5031 52.6413 43.5031H51.3147V46.022C51.3147 46.5786 51.0433 46.857 50.5006 46.857C49.9485 46.857 49.6725 46.5787 49.6725 46.022V38.9942C49.6725 38.3449 50.0017 38.02 50.6605 38.02H52.6507C53.0216 38.02 53.3743 38.092 53.7083 38.2357C54.0424 38.3796 54.3346 38.5766 54.5851 38.8271C54.8356 39.0776 55.0326 39.3699 55.1765 39.7038C55.3202 40.0379 55.3922 40.3905 55.3922 40.7615C55.3922 41.142 55.32 41.4969 55.1756 41.8261ZM62.182 43.4243L58.5957 47.0105C58.1808 47.4254 57.5081 47.4254 57.0932 47.0105C56.6782 46.5955 56.6782 45.9229 57.0932 45.5079L59.9281 42.673L57.0932 39.838C56.6782 39.4231 56.6782 38.7504 57.0932 38.3354C57.5081 37.9204 58.1808 37.9204 58.5957 38.3354L62.182 41.9216C62.5968 42.3366 62.5968 43.0093 62.182 43.4243ZM61.4306 30.8632H30.5647C29.9803 30.8632 29.5022 30.385 29.5022 29.8007C29.5022 29.2163 29.9803 28.7382 30.5647 28.7382H61.4306C62.015 28.7382 62.4931 29.2163 62.4931 29.8007C62.4931 30.385 62.015 30.8632 61.4306 30.8632Z" fill="black" stroke="#3E66F3" stroke-width="0.8"/>
<path d="M46.3049 40.3441C46.0357 40.075 45.7204 39.8618 45.3586 39.7039C44.9968 39.5463 44.6162 39.4674 44.2175 39.4674C43.8 39.4674 43.4125 39.5487 43.0554 39.7109C42.6982 39.8733 42.3896 40.0914 42.13 40.365C41.8701 40.6387 41.6659 40.9588 41.5176 41.3252C41.3691 41.6918 41.2949 42.0746 41.2949 42.4733C41.2949 42.8816 41.369 43.2619 41.5176 43.6144C41.6659 43.9672 41.8725 44.2779 42.1369 44.5468C42.4013 44.8161 42.7097 45.0269 43.0623 45.18C43.4148 45.3331 43.7999 45.4096 44.2174 45.4096C44.6349 45.4096 45.0222 45.3331 45.3794 45.18C45.7365 45.027 46.0496 44.8161 46.3188 44.5468C46.5878 44.2778 46.7988 43.9623 46.9519 43.6005C47.105 43.2386 47.1815 42.8538 47.1815 42.4454C47.1815 42.0373 47.1026 41.6522 46.945 41.2904C46.7872 40.9285 46.5739 40.6132 46.3049 40.3441Z" fill="black" stroke="#3E66F3" stroke-width="0.8"/>
<path d="M36.341 40.3441C36.0718 40.075 35.7566 39.8618 35.3947 39.7039C35.0329 39.5463 34.6523 39.4674 34.2536 39.4674C33.8361 39.4674 33.4487 39.5487 33.0916 39.7109C32.7343 39.8733 32.4258 40.0914 32.1661 40.365C31.9063 40.6387 31.7021 40.9588 31.5538 41.3252C31.4053 41.6918 31.3311 42.0746 31.3311 42.4733C31.3311 42.8816 31.4052 43.2619 31.5538 43.6144C31.7021 43.9672 31.9086 44.2779 32.1731 44.5468C32.4375 44.8161 32.7458 45.0269 33.0985 45.18C33.451 45.3331 33.8361 45.4096 34.2535 45.4096C34.671 45.4096 35.0583 45.3331 35.4156 45.18C35.7726 45.027 36.0857 44.8161 36.3549 44.5468C36.6239 44.2778 36.835 43.9623 36.9881 43.6005C37.1411 43.2386 37.2176 42.8538 37.2176 42.4454C37.2176 42.0373 37.1387 41.6522 36.981 41.2904C36.8233 40.9285 36.6101 40.6132 36.341 40.3441Z" fill="black" stroke="#3E66F3" stroke-width="0.8"/>
</svg>
