<svg width="85" height="85" viewBox="0 0 85 85" fill="none" xmlns="http://www.w3.org/2000/svg">
<path d="M11.0697 38.1905C11.2607 37.9089 11.4698 37.8731 11.6395 37.8731C11.8091 37.8731 12.0918 37.9089 12.2829 38.1905C13.7887 40.2588 16.2743 44.379 18.1079 47.4183C19.3036 49.4004 20.222 50.9227 20.4104 51.1164C21.1178 51.8437 22.0878 51.3905 22.6515 50.5655C23.2064 49.7534 23.3605 49.1831 23.3605 48.5747C23.3605 48.1603 15.3207 33.2079 14.5111 31.9633C13.7324 30.7662 13.4788 30.4639 12.1461 30.4639H11.1488C9.82011 30.4639 9.6281 30.7662 8.84938 31.9633C8.03978 33.2079 0 48.1603 0 48.5747C0 49.1831 0.154059 49.7534 0.709009 50.5655C1.27269 51.3905 2.24274 51.8437 2.95004 51.1164C3.13848 50.9227 4.05687 49.4004 5.25259 47.4183C7.08613 44.379 9.5638 40.2588 11.0697 38.1905Z" fill="#F5F5F5"/>
<path d="M64.3876 37.004C67.6989 37.004 70.3323 39.9934 70.3323 43.6909C70.3323 47.3884 67.6989 50.4041 64.3876 50.4041C62.6147 50.4041 61.2328 49.6699 60.3464 48.3325V54.3901H56.6701V37.2662H60.3464V39.0757C61.2328 37.7383 62.6147 37.004 64.3876 37.004ZM78.3513 37.004C82.1055 37.004 84.9998 39.8885 84.9998 43.7172C84.9998 47.5457 82.1055 50.4041 78.3513 50.4041C74.5706 50.4041 71.7025 47.5457 71.7025 43.7172C71.7025 39.8885 74.5706 37.004 78.3513 37.004ZM40.1345 31.7856V35.5093H32.808V38.8134H39.3262V42.5371H32.808V46.4182H40.1345V50.1419H28.9492V31.7856H40.1345ZM46.1164 37.2662L48.2283 40.3081L50.3663 37.2662H54.7466L50.4185 43.4811L55.0594 50.1419H50.627L48.2022 46.6542L45.7775 50.1419H41.3973L46.0121 43.5074L41.684 37.2662H46.1164ZM63.5534 40.518C61.7543 40.518 60.3464 41.9078 60.3464 43.6909C60.3464 45.5004 61.7543 46.864 63.5534 46.864C65.3263 46.864 66.7603 45.4741 66.7603 43.6909C66.7603 41.934 65.3263 40.518 63.5534 40.518ZM78.3513 40.5441C76.604 40.5441 75.3007 41.8815 75.3007 43.7172C75.3007 45.5004 76.604 46.864 78.3513 46.864C80.0718 46.864 81.4019 45.5004 81.4019 43.7172C81.4019 41.8815 80.0718 40.5441 78.3513 40.5441Z" fill="#F5F5F5"/>
</svg>
