<svg width="85" height="85" viewBox="0 0 85 85" fill="none" xmlns="http://www.w3.org/2000/svg">
<path d="M49.6154 42.436C49.6154 38.6258 46.4298 35.5366 42.4996 35.5366C38.57 35.5366 35.3838 38.6258 35.3838 42.436C35.3838 46.2466 38.57 49.3356 42.4996 49.3356C46.4298 49.3356 49.6154 46.2466 49.6154 42.436Z" fill="#53C1DE"/>
<path fill-rule="evenodd" clip-rule="evenodd" d="M65.6104 29.627C67.1131 23.7064 69.0019 12.7274 62.3432 9.00511C55.7156 5.29908 47.0911 12.4005 42.5369 16.6631C37.9961 12.443 29.1292 5.37192 22.4762 9.10599C15.8512 12.8245 17.8942 23.6215 19.4302 29.5792C13.2502 31.2811 2.65625 34.9467 2.65625 42.436C2.65625 49.904 13.2392 53.8921 19.3826 55.5924C17.8409 61.583 15.9002 72.2258 22.5337 75.9361C29.2116 79.6694 38.0508 72.7666 42.6472 68.4574C47.2305 72.7451 55.7722 79.6931 62.4012 75.9725C69.0508 72.2402 67.3189 61.4082 65.7828 55.416C71.7381 53.712 82.3438 49.8108 82.3438 42.436C82.3438 35.0187 71.693 31.3233 65.6104 29.627ZM64.8555 52.2405C63.847 49.1449 62.4856 45.853 60.8204 42.4524C62.4099 39.1321 63.7184 35.8827 64.6988 32.8071C69.1579 34.0606 78.9398 36.9253 78.9398 42.436C78.9398 47.9984 69.5528 50.8903 64.8555 52.2405ZM60.6953 73.1159C55.7494 75.8917 48.4025 69.2474 45.0176 66.0899C47.2632 63.7086 49.5072 60.9402 51.6973 57.8661C55.5499 57.5349 59.1892 56.993 62.4899 56.2533C63.571 60.4918 65.663 70.3277 60.6953 73.1159ZM24.2346 73.0764C19.2882 70.3109 21.549 60.8138 22.6832 56.4009C25.9472 57.1011 29.5603 57.6048 33.422 57.9084C35.6264 60.9163 37.9355 63.6812 40.2624 66.1026C37.3875 68.799 29.2041 75.8545 24.2346 73.0764ZM6.06021 42.436C6.06021 36.8528 15.7836 34.0088 20.3443 32.7585C21.3417 35.9032 22.6497 39.1914 24.2283 42.5165C22.6293 45.891 21.3025 49.2312 20.296 52.4131C15.9473 51.2061 6.06021 48.0226 6.06021 42.436ZM24.1817 11.9625C29.1484 9.17511 36.8547 15.9636 40.1516 19.0191C37.8367 21.4294 35.5489 24.1735 33.3633 27.1641C29.6156 27.5009 26.0279 28.0418 22.7298 28.7664C21.4924 23.9613 19.2204 14.7469 24.1817 11.9625ZM54.1325 30.7517C56.6751 31.0627 59.1111 31.4766 61.3984 31.9828C60.7118 34.1169 59.8559 36.3484 58.8479 38.6359C57.3867 35.9478 55.8182 33.3136 54.1325 30.7517ZM42.538 21.3778C44.1081 23.0269 45.6806 24.8686 47.2276 26.8666C44.0898 26.7227 40.9469 26.7221 37.8091 26.8645C39.3574 24.885 40.9434 23.0461 42.538 21.3778ZM26.1813 38.6336C25.19 36.354 24.3418 34.1126 23.6492 31.948C25.9228 31.4548 28.3475 31.0516 30.8736 30.7456C29.1832 33.3019 27.6173 35.9351 26.1813 38.6336ZM30.9461 54.362C28.3366 54.0797 25.8752 53.6969 23.6023 53.2172C24.3059 51.0146 25.1727 48.7249 26.1852 46.3962C27.6409 49.1228 29.2307 51.7815 30.9461 54.362ZM42.6323 63.7274C41.0189 62.0394 39.4095 60.1723 37.8377 58.1642C40.9934 58.2842 44.1551 58.2845 47.3105 58.148C45.7587 60.1927 44.1918 62.0625 42.6323 63.7274ZM58.8803 46.2777C59.9455 48.6317 60.8433 50.9089 61.5565 53.0743C59.2458 53.5856 56.7513 53.9973 54.123 54.303C55.8211 51.6925 57.4146 49.0174 58.8803 46.2777ZM49.7975 54.7031C44.9706 55.0375 40.1136 55.0338 35.2851 54.7304C32.5415 50.8446 30.099 46.758 27.9908 42.5154C30.0889 38.2816 32.5136 34.2029 35.2442 30.3232C40.0762 29.9691 44.9379 29.9681 49.7699 30.3253C52.4771 34.2048 54.898 38.2728 57.0448 42.4684C54.9235 46.7001 52.4862 50.787 49.7975 54.7031ZM60.643 11.8644C65.611 14.6427 63.3996 24.5099 62.3143 28.8007C59.0083 28.0609 55.4181 27.5105 51.6595 27.1684C49.4697 24.1454 47.201 21.3966 44.9236 19.0174C48.2627 15.8961 55.7231 9.1133 60.643 11.8644Z" fill="#53C1DE"/>
</svg>
